# Alias OBJ Model File
# Exported from SketchUp, (c) 2000-2012 Trimble Navigation Limited
# File units = inches

mtllib carpet4.mtl

g Mesh1 Group1 G_23313_1 Model

usemtl M_13_Round_long_pile_rug_texture
v 227.356 0 -119.265
vt -4.97776 3.63137
vn 0 -1 -0
v 230.611 0 -104.111
vt -4.99041 3.57003
v 231.866 0 -88.6848
vt -4.99529 3.50758
v 231.103 0 -73.2285
vt -4.99232 3.445
v 228.332 0 -57.9861
vt -4.98155 3.3833
v 223.598 0 -43.198
vt -4.96316 3.32343
v 216.976 0 -29.0976
vt -4.93743 3.26635
v 208.569 0 -15.9071
vt -4.90477 3.21296
v 198.511 0 -3.83455
vt -4.86569 3.16408
v 186.96 0 6.92961
vt -4.8208 3.12051
v 174.097 0 16.2156
vt -4.77083 3.08292
v 160.127 0 23.8771
vt -4.71655 3.0519
v 145.27 0 29.7932
vt -4.65882 3.02795
v 129.759 0 33.8706
vt -4.59855 3.01144
v 113.839 0 36.0449
vt -4.5367 3.00264
v 97.7613 0 36.282
vt -4.47423 3.00168
v 81.7798 0 34.5781
vt -4.41214 3.00858
v 66.1462 0 30.96
vt -4.3514 3.02323
v 51.1071 0 25.4848
vt -4.29296 3.04539
v 36.8997 0 18.2389
vt -4.23776 3.07473
v 23.7479 0 9.33643
vt -4.18666 3.11076
v 11.8594 0 -1.08207
vt -4.14047 3.15294
v 1.42138 0 -12.8523
vt -4.09991 3.20059
v -7.40135 0 -25.7888
vt -4.06563 3.25296
v -14.4697 0 -39.6873
vt -4.03817 3.30922
v -19.6722 0 -54.3288
vt -4.01796 3.3685
v -22.9268 0 -69.4824
vt -4.00531 3.42984
v -24.1822 0 -84.909
vt -4.00043 3.49229
v -23.4186 0 -100.365
vt -4.0034 3.55486
v -20.648 0 -115.608
vt -4.01417 3.61657
v -15.9141 0 -130.396
vt -4.03256 3.67643
v -9.29156 0 -144.496
vt -4.05829 3.73351
v -0.88485 0 -157.687
vt -4.09095 3.78691
v 9.17346 0 -169.759
vt -4.13003 3.83578
v 20.7248 0 -180.523
vt -4.17491 3.87936
v 33.5869 0 -189.809
vt -4.22489 3.91695
v 47.5569 0 -197.471
vt -4.27917 3.94797
v 62.4147 0 -203.387
vt -4.3369 3.97191
v 77.9257 0 -207.464
vt -4.39716 3.98842
v 93.8455 0 -209.639
vt -4.45902 3.99722
v 109.923 0 -209.876
vt -4.52149 3.99818
v 125.904 0 -208.172
vt -4.58358 3.99129
v 141.538 0 -204.554
vt -4.64432 3.97664
v 156.577 0 -199.079
vt -4.70276 3.95447
v 170.785 0 -191.833
vt -4.75796 3.92514
v 183.936 0 -182.93
vt -4.80906 3.8891
v 195.825 0 -172.512
vt -4.85525 3.84692
v 206.263 0 -160.741
vt -4.89581 3.79928
v 215.086 0 -147.805
vt -4.93009 3.74691
v 222.154 0 -133.906
vt -4.95755 3.69064
f 1/1/1 2/2/1 3/3/1 4/4/1 5/5/1 6/6/1 7/7/1 8/8/1 9/9/1 10/10/1 11/11/1 12/12/1 13/13/1 14/14/1 15/15/1 16/16/1 17/17/1 18/18/1 19/19/1 20/20/1 21/21/1 22/22/1 23/23/1 24/24/1 25/25/1 26/26/1 27/27/1 28/28/1 29/29/1 30/30/1 31/31/1 32/32/1 33/33/1 34/34/1 35/35/1 36/36/1 37/37/1 38/38/1 39/39/1 40/40/1 41/41/1 42/42/1 43/43/1 44/44/1 45/45/1 46/46/1 47/47/1 48/48/1 49/49/1 50/50/1 

g Mesh2 Group1 G_23313_1 Model

v 227.356 0.393701 -119.265
v 230.611 0.393701 -104.111
v 231.866 0.393701 -88.6848
v 231.103 0.393701 -73.2285
v 228.332 0.393701 -57.9861
v 223.598 0.393701 -43.198
v 216.976 0.393701 -29.0976
v 208.569 0.393701 -15.9071
v 198.511 0.393701 -3.83455
v 186.96 0.393701 6.92961
v 174.097 0.393701 16.2156
v 160.127 0.393701 23.8771
v 145.27 0.393701 29.7932
v 129.759 0.393701 33.8706
v 113.839 0.393701 36.0449
v 97.7613 0.393701 36.282
v 81.7798 0.393701 34.5781
v 66.1462 0.393701 30.96
v 51.1071 0.393701 25.4848
v 36.8997 0.393701 18.2389
v 23.7479 0.393701 9.33643
v 11.8594 0.393701 -1.08207
v 1.42138 0.393701 -12.8523
v -7.40135 0.393701 -25.7888
v -14.4697 0.393701 -39.6873
v -19.6722 0.393701 -54.3288
v -22.9268 0.393701 -69.4824
v -24.1822 0.393701 -84.909
v -23.4186 0.393701 -100.365
v -20.648 0.393701 -115.608
v -15.9141 0.393701 -130.396
v -9.29156 0.393701 -144.496
v -0.88485 0.393701 -157.687
v 9.17346 0.393701 -169.759
v 20.7248 0.393701 -180.523
v 33.5869 0.393701 -189.809
v 47.5569 0.393701 -197.471
v 62.4147 0.393701 -203.387
v 77.9257 0.393701 -207.464
v 93.8455 0.393701 -209.639
v 109.923 0.393701 -209.876
v 125.904 0.393701 -208.172
v 141.538 0.393701 -204.554
v 156.577 0.393701 -199.079
v 170.785 0.393701 -191.833
v 183.936 0.393701 -182.93
v 195.825 0.393701 -172.512
v 206.263 0.393701 -160.741
v 215.086 0.393701 -147.805
v 222.154 0.393701 -133.906
f 51/1/1 52/2/1 53/3/1 54/4/1 55/5/1 56/6/1 57/7/1 58/8/1 59/9/1 60/10/1 61/11/1 62/12/1 63/13/1 64/14/1 65/15/1 66/16/1 67/17/1 68/18/1 69/19/1 70/20/1 71/21/1 72/22/1 73/23/1 74/24/1 75/25/1 76/26/1 77/27/1 78/28/1 79/29/1 80/30/1 81/31/1 82/32/1 83/33/1 84/34/1 85/35/1 86/36/1 87/37/1 88/38/1 89/39/1 90/40/1 91/41/1 92/42/1 93/43/1 94/44/1 95/45/1 96/46/1 97/47/1 98/48/1 99/49/1 100/50/1 

