# Alias OBJ Model File
# Exported from SketchUp, (c) 2000-2012 Trimble Navigation Limited
# File units = inches

mtllib tilefloor4.mtl

g Mesh1 Model

usemtl FrontColor
v 78.3104 14.9314 -12.0687
vt -12.0687 14.9314
vn -1 0 -0
v 78.3104 0 -12.0687
vt -12.0687 0
v 78.3104 0 92.6688
vt 92.6688 0
v 78.3104 14.9314 92.6688
vt 92.6688 14.9314
f 1/1/1 2/2/1 3/3/1 4/4/1 

usemtl Armstrong_Tile
vt -20.1447 -1.79387
vn 0 0 -1
vt -20.1447 -0.982969
v 152.779 14.9314 -12.0687
vt -21.9963 -0.982969
v 152.779 0 -12.0687
vt -21.9963 -1.79387
f 2/5/2 1/6/2 5/7/2 6/8/2 

usemtl _3
vt 7.36953 14.4319
vn 0 1 -0
vt 7.36953 12.6958
v 152.779 14.9314 92.6688
vt 8.04689 12.6958
vt 8.04689 14.4319
f 1/9/3 4/10/3 7/11/3 5/12/3 

usemtl Armstrong_Tile
vt 20.1447 -0.982969
vn 0 0 1
vt 20.1447 -1.79387
v 152.779 0 92.6688
vt 21.9963 -1.79387
vt 21.9963 -0.982969
f 4/13/4 3/14/4 8/15/4 7/16/4 

usemtl FrontColor
vt -78.3104 -92.6688
vn 0 -1 -0
vt -78.3104 12.0687
vt -152.779 12.0687
vt -152.779 -92.6688
f 3/17/5 2/18/5 6/19/5 8/20/5 

usemtl Armstrong_Tile
vt 21.6478 -1.79387
vn 1 0 -0
vt 21.6478 -0.982969
vt 19.0437 -0.982969
vt 19.0437 -1.79387
f 6/21/6 5/22/6 7/23/6 8/24/6 

