# Alias OBJ Model File
# Exported from SketchUp, (c) 2000-2012 Trimble Navigation Limited
# File units = meters

mtllib tableOffice2.mtl

g Mesh1 Group3 Group2 Group1 Model

usemtl Color_M09
v 1.59831 0.354398 -2.33826
vt 63.7795 14.5623
vn 0.981961 -0.189086 9.82522e-17
v 1.60781 0.403777 -2.29433
vt 62.05 16.5421
v 1.59831 0.354398 -2.29433
vt 62.05 14.5623
f 1/1/1 2/2/1 3/3/1

v 1.60781 0.403777 -2.33826
vt 63.7795 16.5421
f 2/2/1 1/1/1 4/4/1

vt -4.92957 15.8967
vn 1.29789e-15 5.48241e-15 -1
v 2.15538 0.354398 -2.33826
vt -26.4873 13.9527
vt -4.55522 13.9527
f 4/5/2 5/6/2 1/7/2

v 2.14587 0.403777 -2.33826
vt -26.113 15.8967
f 5/6/2 4/5/2 6/8/2

v 1.88849 0.403777 -2.33826
vt -15.9796 15.8967
f 6/8/2 4/5/2 7/9/2

v 1.8652 0.403777 -2.33826
vt -15.0629 15.8967
f 8/10/2 7/9/2 4/5/2

vt -15.0629 -41.5072
vn 5.82769e-17 0.800254 -0.599661
v 1.88849 0.708796 -1.93121
vt -15.9796 -21.4815
vt -15.9796 -41.5072
f 8/11/3 9/12/3 7/13/3

v 1.8652 0.708796 -1.93121
vt -15.0629 -21.4815
f 9/12/3 8/11/3 10/14/3

v 1.8652 0.403777 -2.29433
vt -62.05 15.8967
vn -1 -2.36678e-15 -0
vt -47.7539 27.9054
vt -63.7795 15.8967
f 11/15/4 10/16/4 8/17/4

v 1.8652 0.708796 -1.8793
vt -45.7104 27.9054
f 10/16/4 11/15/4 12/18/4

vt 15.0629 -40.585
vn 7.04136e-16 -0.805788 0.592204
v 1.88849 0.708796 -1.8793
vt 15.9796 -20.3072
vt 15.0629 -20.3072
f 11/19/5 13/20/5 12/21/5

v 1.88849 0.403777 -2.29433
vt 15.9796 -40.585
f 13/20/5 11/19/5 14/22/5

vt 15.9796 62.05
vn 0 1 -0
vt 15.0629 63.7795
vt 15.0629 62.05
f 14/23/6 8/24/6 11/25/6

vt 15.9796 63.7795
f 8/24/6 14/23/6 7/26/6

v 2.14587 0.403777 -2.29433
vt 26.113 62.05
f 15/27/6 7/26/6 14/23/6

vt 26.113 63.7795
f 7/26/6 15/27/6 6/28/6

vt -63.7795 10.6724
vn -0.981961 -0.189086 -7.96006e-15
v 2.15538 0.354398 -2.29433
vt -62.05 8.6926
vt -62.05 10.6724
f 6/29/7 16/30/7 15/31/7

vt -63.7795 8.6926
f 16/30/7 6/29/7 5/32/7

v 2.1346 0.708796 -2.33826
vt -25.6691 27.9054
vn -1.59397e-15 -3.88713e-17 -1
f 17/33/8 5/6/8 6/8/8

v 2.27109 2.25597e-16 -2.33826
vt -31.0426 1.1361e-14
f 18/34/8 5/6/8 17/33/8

v 2.22363 1.35358e-16 -2.33826
vt -29.1741 7.80826e-15
f 5/6/8 18/34/8 19/35/8

vt -31.0426 63.7795
vn 1.90137e-15 -1 -0
v 2.22363 1.35358e-16 -2.29433
vt -29.1741 62.05
vt -29.1741 63.7795
f 18/36/9 20/37/9 19/38/9

v 2.27109 2.25597e-16 -2.29433
vt -31.0426 62.05
f 20/37/9 18/36/9 21/39/9

vt 63.7795 -5.86971
vn 0.981961 0.189086 -0
v 2.1346 0.708796 -2.29433
vt 62.05 22.5483
vt 62.05 -5.86971
f 18/40/10 22/41/10 21/42/10

vt 63.7795 22.5483
f 22/41/10 18/40/10 17/43/10

v 2.08714 0.708796 -2.29433
vt -23.8006 62.05
vn 0 -1 -0
vt -25.6691 63.7795
vt -25.6691 62.05
f 23/44/11 17/45/11 22/46/11

v 2.08714 0.708796 -2.33826
vt -23.8006 63.7795
f 17/45/11 23/44/11 24/47/11

v 1.90849 0.708796 -2.29433
vt -16.767 62.05
vn -7.5766e-16 -1 -1.02708e-15
f 25/48/12 24/47/12 23/44/12

v 1.90849 0.708796 -2.33826
vt -16.767 63.7795
f 24/47/12 25/48/12 26/49/12

v 1.8452 0.708796 -2.29433
vt -14.2755 62.05
vn 1.29499e-15 -1 -1.26891e-15
f 27/50/13 26/49/13 25/48/13

v 1.80238 0.708796 -2.29433
vt -12.5896 62.05
f 28/51/13 26/49/13 27/50/13

v 1.80238 0.708796 -2.33826
vt -12.5896 63.7795
f 26/49/13 28/51/13 29/52/13

v 1.66655 0.708796 -2.29433
vt -7.24194 62.05
f 30/53/11 29/52/11 28/51/11

v 1.66655 0.708796 -2.33826
vt -7.24194 63.7795
f 29/52/11 30/53/11 31/54/11

vt 62.05 28.7713
vn 0.981961 -0.189086 -0
vt 63.7795 28.7713
f 30/55/14 4/4/14 31/56/14

f 4/4/14 30/55/14 2/2/14

v 1.61909 0.708796 -2.29433
vt 5.37344 27.9054
vn 0 0 1
vt 4.92957 15.8967
vt 7.24194 27.9054
f 32/57/15 2/58/15 30/59/15

vt 4.55522 13.9527
f 32/57/15 3/60/15 2/58/15

v 1.4826 9.02389e-17 -2.29433
vt 0 3.55271e-15
f 33/61/15 3/60/15 32/57/15

v 1.53006 0 -2.29433
vt 1.8685 0
f 3/60/15 33/61/15 34/62/15

vt 6.75502e-30 62.05
vn -1.90137e-15 -1 -0
v 1.53006 0 -2.33826
vt -1.8685 63.7795
vt -1.8685 62.05
f 33/63/16 35/64/16 34/65/16

v 1.4826 9.02389e-17 -2.33826
vt 6.75502e-30 63.7795
f 35/64/16 33/63/16 36/66/16

vt -62.05 3.48862e-15
vn -0.981961 0.189086 -0
v 1.61909 0.708796 -2.33826
vt -63.7795 28.418
vt -63.7795 3.48862e-15
f 33/67/17 37/68/17 36/69/17

vt -62.05 28.418
f 37/68/17 33/67/17 32/70/17

vt -5.37344 62.05
vt -5.37344 63.7795
f 31/54/11 32/71/11 37/72/11

f 32/71/11 31/54/11 30/53/11

vn -3.66681e-15 -1.66747e-16 1
v 1.8452 0.73429 -2.29433
vt 14.2755 28.9091
f 30/59/18 38/73/18 32/57/18

vt 12.5896 27.9054
f 28/74/18 38/73/18 30/59/18

vt 14.2755 27.9054
f 38/73/18 28/74/18 27/75/18

vt 16.767 27.9054
f 25/76/15 38/73/15 27/75/15

v 1.90849 0.73429 -2.29433
vt 16.767 28.9091
f 38/73/15 25/76/15 39/77/15

vn -1.95005e-15 5.40671e-15 1
v 2.1346 0.73429 -2.29433
vt 25.6691 28.9091
f 25/76/19 40/78/19 39/77/19

vt 23.8006 27.9054
f 23/79/19 40/78/19 25/76/19

vt 25.6691 27.9054
f 40/78/19 23/79/19 22/80/19

vt 26.113 15.8967
vn -3.38591e-15 -8.76971e-16 1
f 15/81/20 22/80/20 23/79/20

vt 26.4873 13.9527
f 16/82/20 22/80/20 15/81/20

vt 31.0426 -4.55343e-14
f 16/82/20 21/83/20 22/80/20

vt 29.1741 -4.9087e-14
f 21/83/20 16/82/20 20/84/20

vn -0.981961 -0.189086 -8.00275e-15
vt -63.7795 -5.5164
vt -62.05 -5.5164
f 16/30/21 19/85/21 20/86/21

f 19/85/21 16/30/21 5/32/21

vt -4.55522 62.05
vn -9.09675e-31 -1 1.02708e-15
vt -26.4873 63.7795
vt -26.4873 62.05
f 3/87/22 5/88/22 16/89/22

vt -4.55522 63.7795
f 5/88/22 3/87/22 1/90/22

vn 0.981961 -0.189086 1.12288e-16
vt 63.7795 0.353308
f 3/3/23 35/91/23 1/1/23

vt 62.05 0.353308
f 35/91/23 3/3/23 34/92/23

vn 0 0 -1
vt -1.8685 0
f 36/61/24 1/7/24 35/93/24

vt -5.37344 27.9054
f 1/7/24 36/61/24 37/94/24

f 1/7/24 37/94/24 4/5/24

vt -7.24194 27.9054
f 4/5/24 37/94/24 31/95/24

v 1.61909 0.73429 -2.33826
vt -5.37344 28.9091
vn 1.09801e-15 2.05235e-15 -1
f 41/96/25 31/95/25 37/94/25

vt -12.5896 27.9054
f 31/95/25 41/96/25 29/97/25

vt -16.767 27.9054
f 29/97/25 41/96/25 26/98/25

v 2.1346 0.73429 -2.33826
vt -25.6691 28.9091
f 42/99/25 26/98/25 41/96/25

f 17/33/25 26/98/25 42/99/25

vt -23.8006 27.9054
f 26/98/25 17/33/25 24/100/25

f 17/33/8 6/8/8 24/100/8

vn -0.981961 -0.189086 7.28598e-18
vt -63.7795 22.9016
f 15/31/26 24/101/26 6/29/26

vt -62.05 22.9016
f 24/101/26 15/31/26 23/102/26

vt 62.05 28.9091
vn 1 0 -0
vt 63.7795 27.9054
vt 63.7795 28.9091
f 40/103/27 17/104/27 42/105/27

vt 62.05 27.9054
f 17/104/27 40/103/27 22/106/27

vt 25.6691 63.7795
vn -1.06641e-17 1 4.10831e-16
vt 16.767 62.05
vt 25.6691 62.05
f 42/107/28 39/108/28 40/109/28

vt 14.2755 62.05
f 42/107/28 38/110/28 39/108/28

vt 5.37344 63.7795
f 41/111/28 38/110/28 42/107/28

v 1.61909 0.73429 -2.29433
vt 5.37344 62.05
f 38/110/28 41/111/28 43/112/28

vt -63.7795 28.9091
vn -1 0 -0
vt -62.05 27.9054
vt -62.05 28.9091
f 41/113/29 32/114/29 43/115/29

vt -63.7795 27.9054
f 32/114/29 41/113/29 37/116/29

vt 5.37344 28.9091
f 32/57/18 38/73/18 43/117/18

v 1.90849 0.73429 -0.71826
vt -16.767 1.36591e-14
vn 7.12967e-16 -1 1.90852e-17
f 44/118/30 38/50/30 39/48/30

v 1.8452 0.73429 -0.71826
vt -14.2755 -5.51736e-16
f 38/50/30 44/118/30 45/119/30

v 1.8452 0.708796 -0.71826
vn 7.12967e-15 1.90852e-17 1
f 46/75/31 44/77/31 45/73/31

v 1.90849 0.708796 -0.71826
f 44/77/31 46/75/31 47/76/31

v 1.8452 0.708796 -1.8793
vt -14.2755 45.7104
vn 7.12967e-16 -1 3.88611e-17
vt -16.767 1.31264e-14
vt -14.2755 -1.08443e-15
f 48/120/32 47/121/32 46/122/32

vt -15.0629 45.7104
f 47/121/32 48/120/32 12/123/32

vn 2.36678e-15 -1 -0
vt -15.0629 47.7539
f 48/120/33 10/124/33 12/123/33

v 1.8452 0.708796 -1.93121
vt -14.2755 47.7539
f 10/124/33 48/120/33 49/125/33

vn -1 -1.61532e-31 -9.16091e-16
f 48/18/34 38/115/34 49/16/34

vt -1.30777e-14 27.9054
f 46/126/34 38/115/34 48/18/34

vt -1.30777e-14 28.9091
f 38/115/34 46/126/34 45/127/34

f 49/16/34 38/115/34 27/114/34

vn 7.12967e-16 -1 -1.24254e-16
f 27/50/35 10/124/35 49/125/35

f 10/124/35 27/50/35 25/48/35

vt -15.9796 47.7539
f 10/124/35 25/48/35 9/128/35

v 1.90849 0.708796 -1.93121
vt -16.767 47.7539
f 9/128/35 25/48/35 50/129/35

vn 1 -6.75733e-15 1.76834e-15
vt 47.7539 27.9054
f 39/103/36 50/130/36 25/106/36

v 1.90849 0.708796 -1.8793
vt 45.7104 27.9054
f 39/103/36 51/131/36 50/130/36

vt 4.38607e-14 28.9091
f 44/132/36 51/131/36 39/103/36

vt 4.38607e-14 27.9054
f 51/131/36 44/132/36 47/133/36

vt -15.9796 45.7104
vt -16.767 45.7104
f 47/121/32 13/134/32 51/135/32

f 47/121/32 12/123/32 13/134/32

vn 9.50622e-16 -1 -4.57692e-17
f 12/123/37 9/128/37 13/134/37

f 9/128/37 12/123/37 10/124/37

vt 62.05 15.8967
vn 1 1.0707e-16 2.47556e-15
f 14/136/38 9/130/38 13/131/38

vt 63.7795 15.8967
f 9/130/38 14/136/38 7/137/38

vn 1.0707e-16 -1 1.73853e-15
f 50/129/39 13/134/39 9/128/39

f 13/134/39 50/129/39 51/135/39

vn -1.06944e-15 -9.13734e-16 1
f 15/81/40 3/60/40 16/82/40

f 3/60/40 15/81/40 2/58/40

vt 15.9796 15.8967
f 2/58/40 15/81/40 14/138/40

vt 15.0629 15.8967
f 2/58/40 14/138/40 11/139/40

vt 4.92957 63.7795
vt 4.92957 62.05
f 11/25/6 4/140/6 2/141/6

f 4/140/6 11/25/6 8/24/6

g Mesh2 Group5 Group4 Group1 Model

v 2.15538 0.354398 -0.67433
vn -0.981961 -0.189086 -9.82522e-17
v 2.14587 0.403777 -0.71826
v 2.15538 0.354398 -0.71826
f 52/1/41 53/2/41 54/3/41

v 2.14587 0.403777 -0.67433
f 53/2/41 52/1/41 55/4/41

vn -1.29789e-15 5.48241e-15 1
v 1.59831 0.354398 -0.67433
f 55/5/42 56/6/42 52/7/42

v 1.60781 0.403777 -0.67433
f 56/6/42 55/5/42 57/8/42

v 1.8652 0.403777 -0.67433
f 57/8/42 55/5/42 58/9/42

v 1.88849 0.403777 -0.67433
f 59/10/42 58/9/42 55/5/42

vn -5.82769e-17 0.800254 0.599661
v 1.8652 0.708796 -1.08138
f 59/11/43 60/12/43 58/13/43

v 1.88849 0.708796 -1.08138
f 60/12/43 59/11/43 61/14/43

v 1.88849 0.403777 -0.71826
vn 1 -2.36678e-15 0
f 62/15/44 61/16/44 59/17/44

v 1.88849 0.708796 -1.13329
f 61/16/44 62/15/44 63/18/44

vn -7.04136e-16 -0.805788 -0.592204
v 1.8652 0.708796 -1.13329
f 62/19/45 64/20/45 63/21/45

v 1.8652 0.403777 -0.71826
f 64/20/45 62/19/45 65/22/45

f 65/23/6 59/24/6 62/25/6

f 59/24/6 65/23/6 58/26/6

v 1.60781 0.403777 -0.71826
f 66/27/6 58/26/6 65/23/6

f 58/26/6 66/27/6 57/28/6

vn 0.981961 -0.189086 7.96006e-15
v 1.59831 0.354398 -0.71826
f 57/29/46 67/30/46 66/31/46

f 67/30/46 57/29/46 56/32/46

v 1.61909 0.708796 -0.67433
vn 1.59397e-15 -3.88713e-17 1
f 68/33/47 56/6/47 57/8/47

v 1.4826 3.15836e-16 -0.67433
f 69/34/47 56/6/47 68/33/47

v 1.53006 2.25597e-16 -0.67433
f 56/6/47 69/34/47 70/35/47

v 1.53006 2.25597e-16 -0.71826
f 69/36/16 71/37/16 70/38/16

v 1.4826 3.15836e-16 -0.71826
f 71/37/16 69/36/16 72/39/16

v 1.61909 0.708796 -0.71826
f 69/40/17 73/41/17 72/42/17

f 73/41/17 69/40/17 68/43/17

v 1.66655 0.708796 -0.71826
f 74/44/11 68/45/11 73/46/11

v 1.66655 0.708796 -0.67433
f 68/45/11 74/44/11 75/47/11

v 1.8452 0.708796 -0.71826
vn 7.5766e-16 -1 1.02708e-15
f 76/48/48 75/47/48 74/44/48

v 1.8452 0.708796 -0.67433
f 75/47/48 76/48/48 77/49/48

v 1.90849 0.708796 -0.71826
vn -1.29499e-15 -1 1.26891e-15
f 78/50/49 77/49/49 76/48/49

v 1.95131 0.708796 -0.71826
f 79/51/49 77/49/49 78/50/49

v 1.95131 0.708796 -0.67433
f 77/49/49 79/51/49 80/52/49

v 2.08714 0.708796 -0.71826
f 81/53/11 80/52/11 79/51/11

v 2.08714 0.708796 -0.67433
f 80/52/11 81/53/11 82/54/11

vn -0.981961 -0.189086 -0
f 81/55/50 55/4/50 82/56/50

f 55/4/50 81/55/50 53/2/50

v 2.1346 0.708796 -0.71826
f 83/57/24 53/58/24 81/59/24

f 83/57/24 54/60/24 53/58/24

v 2.27109 1.80478e-16 -0.71826
f 84/61/24 54/60/24 83/57/24

v 2.22363 9.02389e-17 -0.71826
f 54/60/24 84/61/24 85/62/24

vn 1.90137e-15 -1 0
v 2.22363 9.02389e-17 -0.67433
f 84/63/51 86/64/51 85/65/51

v 2.27109 1.80478e-16 -0.67433
f 86/64/51 84/63/51 87/66/51

v 2.1346 0.708796 -0.67433
f 84/67/10 88/68/10 87/69/10

f 88/68/10 84/67/10 83/70/10

f 82/54/11 83/71/11 88/72/11

f 83/71/11 82/54/11 81/53/11

vn 3.66681e-15 -1.66747e-16 -1
v 1.90849 0.73429 -0.71826
f 81/59/52 89/73/52 83/57/52

f 79/74/52 89/73/52 81/59/52

f 89/73/52 79/74/52 78/75/52

f 76/76/24 89/73/24 78/75/24

v 1.8452 0.73429 -0.71826
f 89/73/24 76/76/24 90/77/24

vn 1.95005e-15 5.40671e-15 -1
v 1.61909 0.73429 -0.71826
f 76/76/53 91/78/53 90/77/53

f 74/79/53 91/78/53 76/76/53

f 91/78/53 74/79/53 73/80/53

vn 3.38591e-15 -8.76971e-16 -1
f 66/81/54 73/80/54 74/79/54

f 67/82/54 73/80/54 66/81/54

f 67/82/54 72/83/54 73/80/54

f 72/83/54 67/82/54 71/84/54

vn 0.981961 -0.189086 8.00275e-15
f 67/30/55 70/85/55 71/86/55

f 70/85/55 67/30/55 56/32/55

vn 9.09675e-31 -1 -1.02708e-15
f 54/87/56 56/88/56 67/89/56

f 56/88/56 54/87/56 52/90/56

vn -0.981961 -0.189086 -1.12288e-16
f 54/3/57 86/91/57 52/1/57

f 86/91/57 54/3/57 85/92/57

f 87/61/15 52/7/15 86/93/15

f 52/7/15 87/61/15 88/94/15

f 52/7/15 88/94/15 55/5/15

f 55/5/15 88/94/15 82/95/15

v 2.1346 0.73429 -0.67433
vn -1.09801e-15 2.05235e-15 1
f 92/96/58 82/95/58 88/94/58

f 82/95/58 92/96/58 80/97/58

f 80/97/58 92/96/58 77/98/58

v 1.61909 0.73429 -0.67433
f 93/99/58 77/98/58 92/96/58

f 68/33/58 77/98/58 93/99/58

f 77/98/58 68/33/58 75/100/58

f 68/33/47 57/8/47 75/100/47

vn 0.981961 -0.189086 -7.28598e-18
f 66/31/59 75/101/59 57/29/59

f 75/101/59 66/31/59 74/102/59

f 91/103/29 68/104/29 93/105/29

f 68/104/29 91/103/29 73/106/29

vn 1.06641e-17 1 -4.10831e-16
f 93/107/60 90/108/60 91/109/60

f 93/107/60 89/110/60 90/108/60

f 92/111/60 89/110/60 93/107/60

v 2.1346 0.73429 -0.71826
f 89/110/60 92/111/60 94/112/60

f 92/113/27 83/114/27 94/115/27

f 83/114/27 92/113/27 88/116/27

f 83/57/52 89/73/52 94/117/52

v 1.8452 0.73429 -2.29433
vn -7.12967e-16 -1 -1.90852e-17
f 95/118/61 89/50/61 90/48/61

v 1.90849 0.73429 -2.29433
f 89/50/61 95/118/61 96/119/61

v 1.90849 0.708796 -2.29433
vn -7.12967e-15 1.90852e-17 -1
f 97/75/62 95/77/62 96/73/62

v 1.8452 0.708796 -2.29433
f 95/77/62 97/75/62 98/76/62

v 1.90849 0.708796 -1.13329
vn -7.12967e-16 -1 -3.88611e-17
f 99/120/63 98/121/63 97/122/63

f 98/121/63 99/120/63 63/123/63

vn -2.36678e-15 -1 -0
f 99/120/64 61/124/64 63/123/64

v 1.90849 0.708796 -1.08138
f 61/124/64 99/120/64 100/125/64

vn 1 -1.61532e-31 9.16091e-16
f 99/18/65 89/115/65 100/16/65

f 97/126/65 89/115/65 99/18/65

f 89/115/65 97/126/65 96/127/65

f 100/16/65 89/115/65 78/114/65

vn -7.12967e-16 -1 1.24254e-16
f 78/50/66 61/124/66 100/125/66

f 61/124/66 78/50/66 76/48/66

f 61/124/66 76/48/66 60/128/66

v 1.8452 0.708796 -1.08138
f 60/128/66 76/48/66 101/129/66

vn -1 -6.75733e-15 -1.76834e-15
f 90/103/67 101/130/67 76/106/67

v 1.8452 0.708796 -1.13329
f 90/103/67 102/131/67 101/130/67

f 95/132/67 102/131/67 90/103/67

f 102/131/67 95/132/67 98/133/67

f 98/121/63 64/134/63 102/135/63

f 98/121/63 63/123/63 64/134/63

vn -9.50622e-16 -1 4.57692e-17
f 63/123/68 60/128/68 64/134/68

f 60/128/68 63/123/68 61/124/68

vn -1 1.0707e-16 -2.47556e-15
f 65/136/69 60/130/69 64/131/69

f 60/130/69 65/136/69 58/137/69

vn -1.0707e-16 -1 -1.73853e-15
f 101/129/70 64/134/70 60/128/70

f 64/134/70 101/129/70 102/135/70

vn 1.06944e-15 -9.13734e-16 -1
f 66/81/71 54/60/71 67/82/71

f 54/60/71 66/81/71 53/58/71

f 53/58/71 66/81/71 65/138/71

f 53/58/71 65/138/71 62/139/71

f 62/25/6 55/140/6 53/141/6

f 55/140/6 62/25/6 59/24/6

g Mesh3 Group6 Composant_2_1 Table___d_ner_KEY_WEST__Maisons_du_monde__R_f__104_906__prix___459_00__1 Sans_titre__1_1 Model

usemtl _2
v 2.33127 0.73429 -2.53433
vt 0.056 -8.08638e-14
vn -2.63678e-16 4.04319e-14 -1
v 2.40127 0.79 -2.53433
vt -5.77529e-16 0.05571
v 2.40127 0.73429 -2.53433
vt -5.77529e-16 -8.06833e-14
f 103/142/72 104/143/72 105/144/72

v 1.40127 0.79 -2.53433
vt 0.8 0.05571
f 104/143/72 103/142/72 106/145/72

v 1.47127 0.73429 -2.53433
vt 0.744 -8.08638e-14
f 106/145/72 103/142/72 107/146/72

vt -1.6 0.07
vn -1.8724e-31 -1 6.51445e-32
v 1.40127 0.73429 -2.53433
vt -1.6 1
vt -1.6 0.93
f 103/147/73 108/148/73 107/149/73

vt -1.6 -7.21911e-16
f 105/150/73 108/148/73 103/147/73

v 1.40127 0.73429 -0.53433
vt -4.33147e-16 1
f 105/150/73 109/151/73 108/148/73

v 2.40127 0.73429 -0.53433
vt 9.40571e-48 1.08287e-15
f 109/151/73 105/150/73 110/152/73

vt 1.6 0.05571
vn 1 0 -2.63678e-16
vt 0 1.80478e-16
vt 1.6 1.80478e-16
f 104/153/74 110/154/74 105/155/74

v 2.40127 0.79 -0.53433
vt 0 0.05571
f 110/154/74 104/153/74 111/156/74

vt 1.6 -7.21911e-16
v 1.40127 0.79 -0.53433
vt 4.33147e-16 1
vt 0 1.08287e-15
f 104/157/6 112/158/6 111/159/6

vt 1.6 1
f 112/158/6 104/157/6 106/160/6

vt -1.6 1.80478e-16
vn -1 0 2.63678e-16
vt -4.33147e-16 0.05571
vt -1.6 0.05571
f 108/161/75 112/162/75 106/163/75

vt -4.33147e-16 1.80478e-16
f 112/162/75 108/161/75 109/164/75

vt -8.66294e-16 1.80478e-16
vn 2.63678e-16 0 1
vt -0.8 0.05571
vt -0.8 1.80478e-16
f 110/165/76 112/166/76 109/167/76

vt -8.66294e-16 0.05571
f 112/166/76 110/165/76 111/168/76

vt 0.8 -8.06833e-14
f 106/145/72 107/146/72 108/169/72

