# Alias OBJ Model File
# Exported from SketchUp, (c) 2000-2012 Trimble Navigation Limited
# File units = inches

mtllib woodfloor3.mtl

g Mesh1 Component_15_1 Model

usemtl FrontColor
v 33.3011 0 23.7977
vt 0 0
vn 0 0 1
v 44.6579 0 23.7977
vt 7.28 0
v 44.6579 1.17 23.7977
vt 7.28 0.75
v 33.3011 1.17 23.7977
vt 0 0.75
f 1/1/1 2/2/1 3/3/1 4/4/1 

vt -7.28 23.86
vn 0 -1 -0
vt 0 23.86
v 33.3011 0 -50.6455
vt 0 71.58
v 44.6579 0 -50.6455
vt -7.28 71.58
v 44.6579 0 -13.4239
vt -7.28 47.72
f 2/5/2 1/6/2 5/7/2 6/8/2 7/9/2 

vt -71.58 0
vn -1 0 -0
vt -23.86 0
vt -23.86 0.75
v 33.3011 1.17 -50.6455
vt -71.58 0.75
f 5/10/3 1/11/3 4/12/3 8/13/3 

usemtl shaw_quiet_cover_urban_ash_7_x_48_5
vt -0.301686 1.68337
vn 0 1 -0
v 44.6579 1.17 -13.4239
vt 0.0137896 1.68337
v 44.6579 1.17 -50.6455
vt 0.329266 1.68337
vt 0.329266 1.77963
vt -0.301686 1.77963
f 3/14/4 9/15/4 10/16/4 8/17/4 4/18/4 

usemtl FrontColor
vt -47.72 0
vt -47.72 0.75
f 7/19/3 2/11/3 3/12/3 9/20/3 

v 56.0147 0 61.0193
vt -14.56 0
v 44.6579 0 61.0193
vt -7.28 0
v 56.0147 0 -13.4239
vt -14.56 47.72
v 56.0147 0 23.7977
vt -14.56 23.86
f 11/21/2 12/22/2 2/5/2 7/9/2 13/23/2 14/24/2 

vt 14.56 0
v 56.0147 1.17 61.0193
vt 14.56 0.75
v 44.6579 1.17 61.0193
f 12/2/1 11/25/1 15/26/1 16/3/1 

vn 1 0 -0
vt 23.86 0
v 56.0147 1.17 23.7977
vt 23.86 0.75
f 11/1/5 14/27/5 17/28/5 15/4/5 

v 56.0147 1.17 -13.4239
f 13/19/3 14/11/3 17/12/3 18/20/3 

v 67.3715 0 23.7977
vt -21.84 23.86
v 56.0147 0 -50.6455
vt -14.56 71.58
v 67.3715 0 -50.6455
vt -21.84 71.58
v 67.3715 0 -13.4239
vt -21.84 47.72
f 19/29/2 14/24/2 13/23/2 20/30/2 21/31/2 22/32/2 

vt 21.84 0
v 67.3715 1.17 23.7977
vt 21.84 0.75
f 14/25/1 19/33/1 23/34/1 17/26/1 

v 67.3715 1.17 -13.4239
f 22/19/3 19/11/3 23/12/3 24/20/3 

v 78.7283 0 61.0193
vt -29.12 7.10543e-15
v 67.3715 0 61.0193
vt -21.84 7.10543e-15
v 78.7283 0 -13.4239
vt -29.12 47.72
f 25/35/2 26/36/2 19/29/2 22/32/2 27/37/2 

vt 29.12 0
v 78.7283 1.17 61.0193
vt 29.12 0.75
v 67.3715 1.17 61.0193
f 26/33/1 25/38/1 28/39/1 29/34/1 

vt 7.10543e-15 0
vt 47.72 0
v 78.7283 1.17 -13.4239
vt 47.72 0.75
vt 7.10543e-15 0.75
f 25/40/5 27/41/5 30/42/5 28/43/5 

vt -29.12 0
vn 0 0 -1
vt -21.84 0
vt -21.84 0.75
vt -29.12 0.75
f 27/44/6 22/45/6 24/46/6 30/47/6 

v 67.3715 0 -87.8671
vt -21.84 95.44
v 78.7283 0 -87.8671
vt -29.12 95.44
f 27/37/2 22/32/2 21/31/2 31/48/2 32/49/2 

v 67.3715 1.17 -50.6455
vt 71.58 0.75
vt 71.58 0
f 33/50/5 24/42/5 22/41/5 21/51/5 

usemtl shaw_quiet_cover_urban_ash_7_x_48_5
vt -0.301686 1.58712
vt -0.301686 1.49086
vt 0.0137896 1.49086
vt 0.329266 1.49086
v 56.0147 1.17 -50.6455
vt 0.329266 1.58712
vt 0.0137896 1.58712
f 17/52/4 23/53/4 24/54/4 33/55/4 34/56/4 18/57/4 

vt -0.617162 1.49086
vt -0.617162 1.3946
vt 0.0137896 1.3946
f 29/58/4 28/59/4 30/60/4 24/54/4 23/53/4 

v 78.7283 1.17 -87.8671
vt 0.644742 1.3946
v 67.3715 1.17 -87.8671
vt 0.644742 1.49086
f 24/54/4 30/60/4 35/61/4 36/62/4 33/55/4 

usemtl FrontColor
vt 95.44 0
vt 95.44 0.75
f 27/41/5 32/63/5 35/64/5 30/42/5 

f 32/44/6 31/45/6 36/46/6 35/47/6 

vt -95.44 0
vt -95.44 0.75
f 31/65/3 21/10/3 33/13/3 36/66/3 

vt -14.56 0.75
f 21/45/6 20/21/6 34/67/6 33/46/6 

f 20/10/3 13/19/3 18/20/3 34/13/3 

v 44.6579 0 -87.8671
vt -7.28 95.44
v 56.0147 0 -87.8671
vt -14.56 95.44
f 13/23/2 7/9/2 6/8/2 37/68/2 38/69/2 20/30/2 

vt -7.28 0.75
f 13/21/6 7/22/6 9/70/6 18/67/6 

f 10/50/5 9/42/5 7/41/5 6/51/5 

usemtl shaw_quiet_cover_urban_ash_7_x_48_5
v 56.0147 1.17 -87.8671
vt 0.644742 1.58712
v 44.6579 1.17 -87.8671
vt 0.644742 1.68337
f 9/15/4 18/57/4 34/56/4 39/71/4 40/72/4 10/16/4 

vt -0.617162 1.68337
vt -0.617162 1.58712
f 16/73/4 15/74/4 17/52/4 18/57/4 9/15/4 3/14/4 

usemtl FrontColor
f 2/11/3 12/1/3 16/4/3 3/12/3 

f 39/64/5 34/50/5 20/51/5 38/63/5 

f 38/21/6 37/22/6 40/70/6 39/67/6 

f 37/65/3 6/10/3 10/13/3 40/66/3 

f 6/22/6 5/1/6 8/4/6 10/70/6 

vt -7.10543e-15 0
vt -7.10543e-15 0.75
f 19/11/3 26/75/3 29/76/3 23/12/3 

