# Alias OBJ Model File
# Exported from SketchUp, (c) 2000-2012 Trimble Navigation Limited
# File units = millimeters

mtllib DiningTable1.mtl

g Mesh1 Group2 Group1 Model

usemtl M_0136_Charcoal
v 20 750 20
vt -63.1811 87.7953
vn 0 1 -0
v 2.27374e-13 750 -0
vt -63.9685 88.5827
v 2.27374e-13 750 20
vt -63.9685 87.7953
f 1/1/1 2/2/1 3/3/1

v 20 750 -0
vt -63.1811 88.5827
f 2/2/1 1/1/1 4/4/1

vt 87.7953 1.1811
vn 1 0 -0
v 20 0 -0
vt 88.5827 -28.3465
vt 88.5827 1.1811
f 1/5/2 5/6/2 4/7/2

v 20 730 20
vt 87.7953 0.393701
f 6/8/2 5/6/2 1/5/2

v 20 20 20
vt 87.7953 -27.5591
f 7/9/2 5/6/2 6/8/2

v 20 20 380
vt 73.622 -27.5591
f 8/10/2 5/6/2 7/9/2

v 20 0 380
vt 73.622 -28.3465
f 5/6/2 8/10/2 9/11/2

vt 63.1811 -27.5591
vn 0 0 -1
v 780 0 380
vt 33.2598 -28.3465
vt 63.1811 -28.3465
f 8/12/3 10/13/3 9/14/3

v 780 20 380
vt 33.2598 -27.5591
f 10/13/3 8/12/3 11/15/3

vt -63.1811 73.622
v 800 20 400
vt -32.4724 72.8346
vt -33.2598 73.622
f 8/16/1 12/17/1 11/18/1

v 2.27374e-13 20 400
vt -63.9685 72.8346
f 8/16/1 13/19/1 12/17/1

v 2.27374e-13 20 20
f 13/19/1 8/16/1 14/3/1

f 7/1/1 14/3/1 8/16/1

vt -63.1811 0.393701
vn 0 0 1
vt -63.9685 -27.5591
vt -63.1811 -27.5591
f 6/20/4 14/21/4 7/22/4

v 2.27374e-13 730 20
vt -63.9685 0.393701
f 14/21/4 6/20/4 15/23/4

vt -63.1811 1.1811
f 15/23/4 6/20/4 1/24/4

vt -63.9685 1.1811
f 15/23/4 1/24/4 3/25/4

vt -88.5827 1.1811
vn -1 0 -0
vt -87.7953 0.393701
vt -87.7953 1.1811
f 2/26/5 15/27/5 3/28/5

vt -87.7953 -27.5591
f 15/27/5 2/26/5 14/29/5

v 2.27374e-13 0 -0
vt -88.5827 -28.3465
f 16/30/5 14/29/5 2/26/5

v 2.27374e-13 0 400
vt -72.8346 -28.3465
f 17/31/5 14/29/5 16/30/5

vt -72.8346 -27.5591
f 14/29/5 17/31/5 13/32/5

vt -63.9685 -28.3465
vt -32.4724 -27.5591
f 17/33/4 12/34/4 13/21/4

v 800 0 400
vt -32.4724 -28.3465
f 12/34/4 17/33/4 18/35/4

vt 63.9685 72.8346
vn 0 -1 -0
vt 63.1811 73.622
vt 32.4724 72.8346
f 17/36/6 9/37/6 18/38/6

vt 63.1811 88.5827
f 17/36/6 5/39/6 9/37/6

vt 63.9685 88.5827
f 5/39/6 17/36/6 16/40/6

v 2.27374e-13 730 -0
vt 63.9685 0.393701
vt 63.9685 -28.3465
f 19/41/3 5/14/3 16/42/3

v 20 730 -0
vt 63.1811 0.393701
f 5/14/3 19/41/3 20/43/3

vt 63.9685 1.1811
f 20/43/3 19/41/3 2/44/3

vt -88.5827 0.393701
f 16/30/5 2/26/5 19/45/5

vt 63.1811 1.1811
f 20/43/3 2/44/3 4/46/3

vt 88.5827 0.393701
f 4/7/2 5/6/2 20/47/2

vt 33.2598 73.622
f 18/38/6 9/37/6 10/48/6

v 800 0 -0
vt 32.4724 88.5827
f 18/38/6 10/48/6 21/49/6

v 780 0 -0
vt 33.2598 88.5827
f 21/49/6 10/48/6 22/50/6

vt -73.622 -28.3465
v 780 20 20
f 10/51/5 23/29/5 22/30/5

vt -73.622 -27.5591
f 23/29/5 10/51/5 11/52/5

vt -33.2598 87.7953
f 11/18/1 12/17/1 23/53/1

v 800 20 20
vt -32.4724 87.7953
f 23/53/1 12/17/1 24/54/1

vt 72.8346 -27.5591
f 12/55/2 21/6/2 24/9/2

vt 72.8346 -28.3465
f 21/6/2 12/55/2 18/56/2

v 800 750 20
f 24/9/2 21/6/2 25/5/2

v 800 750 -0
f 25/5/2 21/6/2 26/7/2

vt 32.4724 -28.3465
v 780 750 -0
vt 33.2598 1.1811
vt 32.4724 1.1811
f 21/57/3 27/58/3 26/59/3

f 27/58/3 21/57/3 22/13/3

f 22/30/5 23/29/5 27/26/5

v 780 750 20
f 27/26/5 23/29/5 28/28/5

vt -33.2598 -27.5591
vt -32.4724 1.1811
vt -33.2598 1.1811
f 23/60/4 25/61/4 28/62/4

f 25/61/4 23/60/4 24/34/4

vt -33.2598 88.5827
f 25/54/1 27/63/1 28/53/1

vt -32.4724 88.5827
f 27/63/1 25/54/1 26/64/1

g Mesh2 Group3 Group1 Model

usemtl M_0007_MistyRose
v 0 750 -0
vt -8.02124e-16 1.87083
v 800 750 2250
vt -0.444444 0
v -1.44382e-12 750 2250
vt 0 1.20051e-15
f 29/65/6 30/66/6 31/67/6

v 800 750 -1.36424e-12
vt -0.444444 1.87083
f 30/66/6 29/65/6 32/68/6

v 0 780 -0
vt -2.4941e-15 0.0249444
vn -1.35358e-15 0 -1
vt -2.4941e-15 0
f 33/69/7 32/66/7 29/70/7

v 800 780 -1.36424e-12
vt -0.444444 0.0249444
f 32/66/7 33/69/7 34/71/7

vt 0.983136 0.562523
v 800 780 2250
vt 0.000487053 0.0396084
vt 0.983136 0.0396083
f 33/72/1 35/73/1 34/74/1

v -1.44382e-12 780 2250
vt 0.000487188 0.562523
f 35/73/1 33/72/1 36/75/1

vt -1.25 0.0249444
vn -1 0 -6.41699e-16
vt -8.02124e-16 0
vt -8.02124e-16 0.0249444
f 33/76/8 31/77/8 36/78/8

vt -1.25 0
f 31/77/8 33/76/8 29/79/8

vt -1.44766e-30 0
vn -1.80478e-15 0 1
vt 0.444444 0.0249444
vt -1.44766e-30 0.0249444
f 31/80/9 35/81/9 36/82/9

vt 0.444444 0
f 35/81/9 31/80/9 30/83/9

vt 1.25 0
vt 0 0.0249444
vt 0 0
f 32/84/2 35/85/2 30/86/2

vt 1.25 0.0249444
f 35/85/2 32/84/2 34/87/2

g Mesh3 Group4 Group1 Model

usemtl M_0136_Charcoal
v 780 750 2230
v 800 750 2250
v 800 750 2230
f 37/1/1 38/2/1 39/3/1

v 780 750 2250
f 38/2/1 37/1/1 40/4/1

v 780 0 2250
f 37/5/5 41/6/5 40/7/5

v 780 730 2230
f 42/8/5 41/6/5 37/5/5

v 780 20 2230
f 43/9/5 41/6/5 42/8/5

v 780 20 1870
f 44/10/5 41/6/5 43/9/5

v 780 0 1870
f 41/6/5 44/10/5 45/11/5

v 20 0 1870
f 44/12/4 46/13/4 45/14/4

v 20 20 1870
f 46/13/4 44/12/4 47/15/4

v -6.82121e-13 20 1850
f 44/16/1 48/17/1 47/18/1

v 800 20 1850
f 44/16/1 49/19/1 48/17/1

v 800 20 2230
f 49/19/1 44/16/1 50/3/1

f 43/1/1 50/3/1 44/16/1

f 42/20/3 50/21/3 43/22/3

v 800 730 2230
f 50/21/3 42/20/3 51/23/3

f 51/23/3 42/20/3 37/24/3

f 51/23/3 37/24/3 39/25/3

f 38/26/2 51/27/2 39/28/2

f 51/27/2 38/26/2 50/29/2

v 800 0 2250
f 52/30/2 50/29/2 38/26/2

v 800 0 1850
f 53/31/2 50/29/2 52/30/2

f 50/29/2 53/31/2 49/32/2

f 53/33/3 48/34/3 49/21/3

v -6.82121e-13 0 1850
f 48/34/3 53/33/3 54/35/3

f 53/36/6 45/37/6 54/38/6

f 53/36/6 41/39/6 45/37/6

f 41/39/6 53/36/6 52/40/6

v 800 730 2250
f 55/41/4 41/14/4 52/42/4

v 780 730 2250
f 41/14/4 55/41/4 56/43/4

f 56/43/4 55/41/4 38/44/4

f 52/30/2 38/26/2 55/45/2

f 56/43/4 38/44/4 40/46/4

f 40/7/5 41/6/5 56/47/5

f 54/38/6 45/37/6 46/48/6

v -6.82121e-13 0 2250
f 54/38/6 46/48/6 57/49/6

v 20 0 2250
f 57/49/6 46/48/6 58/50/6

v 20 20 2230
f 46/51/2 59/29/2 58/30/2

f 59/29/2 46/51/2 47/52/2

f 47/18/1 48/17/1 59/53/1

v -6.82121e-13 20 2230
f 59/53/1 48/17/1 60/54/1

f 48/55/5 57/6/5 60/9/5

f 57/6/5 48/55/5 54/56/5

v -6.82121e-13 750 2230
f 60/9/5 57/6/5 61/5/5

v -6.82121e-13 750 2250
f 61/5/5 57/6/5 62/7/5

v 20 750 2250
f 57/57/4 63/58/4 62/59/4

f 63/58/4 57/57/4 58/13/4

f 58/30/2 59/29/2 63/26/2

v 20 750 2230
f 63/26/2 59/29/2 64/28/2

f 59/60/3 61/61/3 64/62/3

f 61/61/3 59/60/3 60/34/3

f 61/54/1 63/63/1 64/53/1

f 63/63/1 61/54/1 62/64/1

g Mesh4 Group5 Group1 Model

v 0 720 20
vt -5.68434e-14 88.5827
v 20 720 2230
vt -0.787402 1.5748
v -1.44382e-12 720 2230
vt 0 1.5748
f 65/88/6 66/89/6 67/90/6

v 20 720 20
vt -0.787402 88.5827
f 66/89/6 65/88/6 68/91/6

v 0 750 20
vt -1.76748e-13 1.1811
vt -0.787402 0
vt -1.76748e-13 0
f 69/92/7 68/93/7 65/94/7

v 20 750 20
vt -0.787402 1.1811
f 68/93/7 69/92/7 70/95/7

vt 5.68434e-14 88.5827
v 20 750 2230
vt 0.787402 1.5748
vt 0.787402 88.5827
f 69/96/1 71/97/1 70/98/1

v -1.44382e-12 750 2230
f 71/97/1 69/96/1 72/90/1

vt -1.5748 0
vt -1.5748 1.1811
f 69/26/8 67/99/8 72/100/8

vt -88.5827 0
f 67/99/8 69/26/8 65/101/8

vt -2.84217e-15 0
vt 0.787402 1.1811
vt -2.84217e-15 1.1811
f 67/102/9 71/103/9 72/104/9

vt 0.787402 0
f 71/103/9 67/102/9 66/105/9

vt 88.5827 0
vt 1.5748 1.1811
vt 1.5748 0
f 68/106/2 71/107/2 66/108/2

f 71/107/2 68/106/2 70/7/2

g Mesh5 Group6 Group1 Model

v 780 720 20
v 800 720 2230
v 780 720 2230
f 73/88/6 74/89/6 75/90/6

v 800 720 20
f 74/89/6 73/88/6 76/91/6

v 780 750 20
f 77/92/7 76/93/7 73/94/7

v 800 750 20
f 76/93/7 77/92/7 78/95/7

v 800 750 2230
f 77/96/1 79/97/1 78/98/1

v 780 750 2230
f 79/97/1 77/96/1 80/90/1

f 77/26/8 75/99/8 80/100/8

f 75/99/8 77/26/8 73/101/8

f 75/102/9 79/103/9 80/104/9

f 79/103/9 75/102/9 74/105/9

f 76/106/2 79/107/2 74/108/2

f 79/107/2 76/106/2 78/7/2

g Mesh6 ___1_1 Group1 Model

v 780 750 20
vt 29.9213 1.1811
vn -9.02389e-16 -2.40637e-14 1
v 20 720 20
vt -5.12949e-29 -1.36786e-27
v 780 720 20
vt 29.9213 -2.0176e-27
f 81/109/10 82/110/10 83/111/10

v 20 750 20
vt -5.12949e-29 1.1811
f 82/110/10 81/109/10 84/112/10

vt 29.9213 2.84217e-14
vn -4.34297e-29 1 2.40637e-14
v 20 750 -2.95231e-12
vt 6.66134e-16 0.787402
vt 5.12949e-29 8.52651e-14
f 81/113/11 85/114/11 84/115/11

v 780 750 -1.50635e-12
vt 29.9213 0.787402
f 85/114/11 81/113/11 86/116/11

vt 8.3844e-14 1.29947e-27
vn 1 -4.34297e-29 9.02389e-16
vt 2.70006e-14 1.1811
f 83/117/12 86/103/12 81/118/12

v 780 720 -2.95231e-12
vt 0.787402 1.77636e-14
f 86/103/12 83/117/12 87/119/12

vt -29.9213 5.68434e-14
vn 0 -1 -2.40637e-14
v 20 720 -2.95231e-12
vt -6.66134e-16 0.787402
vt -29.9213 0.787402
f 83/120/13 88/121/13 87/122/13

vt 0 5.68434e-14
f 88/121/13 83/120/13 82/123/13

vt -5.68434e-14 0
vn -1 0 -9.02389e-16
vt -0.787402 1.77636e-14
f 82/124/14 85/95/14 88/125/14

vt -5.68434e-14 1.1811
f 85/95/14 82/124/14 84/126/14

vt 4.44089e-17 1.1811
vn 9.02389e-16 2.40637e-14 -1
vt -29.9213 -1.18424e-15
vt 4.44089e-17 -1.18424e-15
f 85/127/15 87/128/15 88/129/15

vt -29.9213 1.1811
f 87/128/15 85/127/15 86/130/15

g Mesh7 ___1_2 Group1 Model

v 780 750 2250
v 20 720 2250
v 780 720 2250
f 89/109/10 90/110/10 91/111/10

v 20 750 2250
f 90/110/10 89/109/10 92/112/10

v 20 750 2230
f 89/113/11 93/114/11 92/115/11

v 780 750 2230
f 93/114/11 89/113/11 94/116/11

f 91/117/12 94/103/12 89/118/12

v 780 720 2230
f 94/103/12 91/117/12 95/119/12

v 20 720 2230
f 91/120/13 96/121/13 95/122/13

f 96/121/13 91/120/13 90/123/13

f 90/124/14 93/95/14 96/125/14

f 93/95/14 90/124/14 92/126/14

f 93/127/15 95/128/15 96/129/15

f 95/128/15 93/127/15 94/130/15

