# Alias OBJ Model File
# Exported from SketchUp, (c) 2000-2012 Trimble Navigation Limited
# File units = inches

mtllib tilefloor2.mtl

g Mesh1 Group1 Untitled_1_1 Model

usemtl FrontColor
v 4.23751 0 -60.4469
vt -24 0
vn -1 0 -0
v 4.23751 0 -4.28691
vt 0 0
v 4.23751 1.17 -4.28691
vt 0 0.5
v 4.23751 1.17 -60.4469
vt -24 0.5
f 1/1/1 2/2/1 3/3/1 4/4/1 

vt 0 24
vn 0 -1 -0
v 60.3975 0 -60.4469
vt -24 24
v 60.3975 0 -4.28691
f 1/5/2 5/6/2 6/1/2 2/2/2 

vn 0 0 -1
v 60.3975 1.17 -60.4469
f 5/1/3 1/2/3 4/3/3 7/4/3 

usemtl Color_008
vn 0 1 -0
v 4.75402 1.17 -59.9304
vt 0.220732 23.7793
vt 24 24
f 4/5/4 8/7/4 7/8/4

v 4.75402 1.17 -4.80342
vt 0.220732 0.220732
f 8/7/4 4/5/4 9/9/4

f 3/2/4 9/9/4 4/5/4

v 60.3975 1.17 -4.28691
vt 24 0
f 9/9/4 3/2/4 10/10/4

usemtl FrontColor
vn 0 0 1
vt 24 0.5
f 2/2/5 6/10/5 10/11/5 3/3/5 

vn 1 0 -0
f 6/2/6 5/10/6 7/11/6 10/3/6 

usemtl Color_008
v 59.881 1.17 -59.9304
vt 23.7793 23.7793
f 7/8/4 11/12/4 10/10/4

f 7/8/4 8/7/4 11/12/4

usemtl BACK_657
vt -1.05573 1.04919
vt -1.05573 -0.0664929
v 59.881 1.17 -4.80342
vt 0.0599565 -0.0664929
vt 0.0599565 1.04919
f 8/13/4 9/14/4 12/15/4 11/16/4 

usemtl Color_008
vt 23.7793 0.220732
f 9/9/4 10/10/4 12/17/4

f 12/17/4 10/10/4 11/12/4

